<svg xmlns="http://www.w3.org/2000/svg" width="18" height="18" viewBox="0 0 18 18"><g><g><path fill="#d0d0d0" d="M13.325 5.431a.81.81 0 0 0-.725-.805.81.81 0 0 0 0 1.611.81.81 0 0 0 .725-.805zM9 12.438A3.438 3.438 0 1 0 5.571 9 3.429 3.429 0 0 0 9 12.438zm5.211-7.38c.155.396.234.817.234 1.242v5.4a3.6 3.6 0 0 1-.234 1.242 2.142 2.142 0 0 1-1.269 1.269 3.6 3.6 0 0 1-1.242.234H6.3a3.843 3.843 0 0 1-1.197-.234 2.142 2.142 0 0 1-1.269-1.269A3.843 3.843 0 0 1 3.6 11.7V9 6.3a3.843 3.843 0 0 1 .189-1.242 2.142 2.142 0 0 1 1.269-1.224A3.6 3.6 0 0 1 6.3 3.6h5.4a3.6 3.6 0 0 1 1.242.198c.588.217 1.052.68 1.269 1.269zm1.44 6.696c.027-.711-.036-.9-.036-2.754V6.246a5.157 5.157 0 0 0-.315-1.629c-.16-.43-.412-.82-.738-1.143a3.159 3.159 0 0 0-1.179-.774 5.157 5.157 0 0 0-1.629-.315H6.246a5.157 5.157 0 0 0-1.629.315c-.43.162-.819.414-1.143.738-.344.33-.608.733-.774 1.179a4.941 4.941 0 0 0-.306 1.629v5.508c.01.556.113 1.107.306 1.629.16.43.412.82.738 1.143.33.344.733.608 1.179.774a5.157 5.157 0 0 0 1.629.315h5.508a5.157 5.157 0 0 0 1.629-.315 3.474 3.474 0 0 0 1.917-1.917 5.157 5.157 0 0 0 .351-1.62zM18 9c0 2.934 0 3.276-.063 4.437a5.94 5.94 0 0 1-.378 2.043c-.18.474-.46.903-.819 1.26a3.5 3.5 0 0 1-1.269.819 5.877 5.877 0 0 1-2.034.378C12.276 18 11.934 18 9 18s-3.276 0-4.437-.063a5.877 5.877 0 0 1-2.034-.378 3.5 3.5 0 0 1-1.269-.819 3.546 3.546 0 0 1-.819-1.26 6.174 6.174 0 0 1-.378-2.043C0 12.276 0 11.934 0 9s0-3.276.063-4.437a5.877 5.877 0 0 1 .378-2.034A3.6 3.6 0 0 1 2.529.441 5.877 5.877 0 0 1 4.563.063C5.724 0 6.066 0 9 0s3.276 0 4.437.063a5.877 5.877 0 0 1 2.034.378 3.6 3.6 0 0 1 2.088 2.088c.245.65.373 1.339.378 2.034C18 5.724 18 6.066 18 9zm-6.768 0a2.232 2.232 0 1 1-4.464 0 2.232 2.232 0 0 1 4.464 0z"/></g></g></svg>