<svg xmlns="http://www.w3.org/2000/svg" width="99" height="60" viewBox="0 0 99 60"><g><g><g><path fill="#32125b" d="M60.375 50.656h.002l.027-.002a.472.472 0 0 0 .057-.01.788.788 0 0 0 .472-.288l.012-.022.017-.027.03-.05c.017-.031.03-.063.046-.105a1.491 1.491 0 0 0 .077-.368c.002-.047.01-.093.007-.138.005-.088.003-.194.003-.293l-.003-.3-.01-2.408v-2.408l.015-2.291c-.002-.012.002-.027 0-.041 0-.01 0-.02-.002-.033-.003-.007-.005-.015-.005-.022-.005-.024-.012-.049-.02-.076a1.187 1.187 0 0 0-.194-.408.606.606 0 0 0-.197-.162.72.72 0 0 0-.258-.071l-.022-.003-.196-.005-.247-.002-.49-.008-.837-.012-.024.425-.084 1.216-.715-.012-.042-1.172-.012-.471-.258-.004-.491-.01-.124-.002a1.003 1.003 0 0 1-.204-.03l-.12-.03c-.041-.01-.093-.03-.137-.045l-.013-.003-.012-.005c-.059-.029-.118-.054-.18-.09a1.619 1.619 0 0 1-.095-.065l-.04-.031-.041-.04a.923.923 0 0 1-.214-.282l-.037-.074-.007-.015-.008-.017c-.015-.04-.032-.084-.05-.14-.016-.059-.026-.113-.039-.17l-.022-.137a1.406 1.406 0 0 1-.01-.143l-.01-.283c0-.09.004-.171.006-.258l.024-1.007v-.05l.003-.095c.005-.064.017-.123.025-.187.02-.123.058-.246.115-.366.015-.03.027-.057.044-.087a1.102 1.102 0 0 1 .185-.247c.046-.05.098-.096.157-.138a1.31 1.31 0 0 1 .555-.226c.128-.022.258-.022.362-.017l.327.01.408.032a1.466 1.466 0 0 1 .57.351 1.277 1.277 0 0 1 .29.433c.022.056.031.097.049.15l.005.012.002.012.017.094.008.048.004.06c.006.064.006.122.003.199l-.017.3-.032.604-.032.536c.216-.003.432-.005.649-.01l.624-.008.31-.004c.12 0 .248.004.359.017a2.162 2.162 0 0 1 1.3.641 2.632 2.632 0 0 1 .556.912c.019.054.034.11.05.167.018.057.035.113.047.172.008.03.015.06.02.086l.007.043.008.048.002.02.005.032a.923.923 0 0 1 .003.071v.078l.002.313.005.624.01 2.497c.002.833.005 1.666.002 2.5l-.007 1.248v.315c-.002.106-.002.208-.008.322 0 .056-.004.11-.01.167l-.007.08-.012.092a2.636 2.636 0 0 1-.066.336c-.06.224-.143.44-.26.646-.119.207-.271.394-.446.552a2.343 2.343 0 0 1-1.268.575c-.059.004-.115.014-.177.017-.069.005-.118.002-.172.002l-.312-.002-.625-.008-1.248-.017c-.833-.01-1.666-.03-2.5-.044l-1.248-.027-.631-.015-.167-.014-.163-.023a2.662 2.662 0 0 1-.329-.068 2.226 2.226 0 0 1-.626-.286 1.81 1.81 0 0 1-.485-.503c-.125-.2-.204-.42-.248-.642a2.303 2.303 0 0 1-.04-.334l-.007-.33.081-2.497c.06-1.663.12-3.327.21-4.991.044-.83.08-1.664.132-2.495l.04-.623c.012-.207.024-.416.038-.628.032-.425.067-.835.087-1.241.012.249.027.497.046.75l.057.766.093 1.522.155 3.04.064 1.522.059 1.52.1 3c.006.046.008.097.008.145l.005.14c-.002.092.01.171.014.257.01.167.054.324.129.433.142.216.493.283.833.28l2.184-.046c1.458-.03 2.913-.055 4.37-.07zM57.41 37.999h-.035l-.181.007-.091.003h-.027l-.032.002a.258.258 0 0 0-.042.008h-.005v.002l-.01.002-.002.128v.037c.002-.002.002.037.002.032l.022.833.005.224c.003.07.003.152.01.214l.013.18.71-.016-.01-.437-.012-.585-.006-.295-.002-.15-.008-.089-.002-.01-.002-.004-.005-.012-.005-.01a.185.185 0 0 0-.034-.034l-.015-.013-.01-.007a.045.045 0 0 1-.014-.01l-.018-.007-.18.007zm-.41.012c.002 0 .002-.002.002-.002z"/></g><g><path fill="#32125b" d="M86.926 49.415c.002.125.002.282-.008.425-.004.069-.007.138-.019.209a2.607 2.607 0 0 1-.351 1.06 2.145 2.145 0 0 1-.531.601 2.341 2.341 0 0 1-.288.194c-.066.04-.135.071-.203.103a2.45 2.45 0 0 1-.888.21l-.398.002-3.154.01-1.575-.006-.789-.002-.393-.002c-.132-.003-.256.002-.413-.005-.55-.03-1.17-.187-1.62-.637a1.8 1.8 0 0 1-.282-.363 2.01 2.01 0 0 1-.187-.416 2.75 2.75 0 0 1-.118-.855c0-.069-.002-.14 0-.207l.002-.048v-.037c0-.015 0-.025-.002-.042v-.067l.005-.393.01-.79.023-1.574c.039-2.102.088-4.2.147-6.302l.024-.789.012-.393c.005-.133.013-.27.032-.408.034-.273.106-.55.232-.804.122-.253.297-.486.518-.668.218-.182.477-.31.744-.386a1.918 1.918 0 0 1 .624-.076l.2.01 1.572.069c1.05.046 2.1.098 3.15.157.52.03 1.061.066 1.587.105.352.028.695.05 1.04.07l.518.029h-.002l-.546.029c-.238.012-.48.03-.723.047l-1.3.09c-.86.055-1.715.097-2.575.141l-2.573.115-.323.013-.078.002-.067.01a.948.948 0 0 0-.142.032c-.187.054-.36.15-.489.285-.13.136-.216.31-.266.499-.049.19-.063.388-.054.597.027.856.057 1.716.079 2.574l.041 1.784.905-.044c.526-.025 1.05-.057 1.575-.072 1.053-.04 2.102-.08 3.153-.107l1.576-.048.197-.004h.108a2.16 2.16 0 0 1 1.018.23c.144.077.273.165.392.269.24.208.424.466.556.737.064.132.123.275.162.418.022.07.044.14.06.218.01.04.014.069.022.116.002.02.007.034.01.084l.002.036v.025l.029 1.575.024 1.575zm-5.483-4.845l-2.492-.093-1.802-.084v.018l.052 2.575.034 2.578.005.12.003.165c.002.101 0 .204.015.295.007.045.014.089.024.128.005.02.012.035.02.06.005.014.012.028.02.044l.012.021.015.023a.09.09 0 0 0 .025.032l.019.022.01.007c.006.008.022.017.041.03a.543.543 0 0 0 .133.061c.05.017.106.03.165.04.027.004.061.01.083.012l.091.01.11.004h.084l.838-.004 1.679-.008a384.48 384.48 0 0 1 3.355 0l.417.003.207.002c.017 0 .01-.002.025-.002l.036-.005a.788.788 0 0 0 .354-.135.576.576 0 0 0 .106-.092.78.78 0 0 0 .088-.115c.052-.086.091-.187.119-.297.014-.057.021-.108.032-.172.005-.03.007-.064.009-.096.002-.035.002-.061.005-.091.005-.113.005-.265.008-.403l.002-.42c.015-1.092.027-2.185.05-3.279h.002v-.007h-.003v-.018l-.005-.022-.012-.056-.015-.062a.18.18 0 0 0-.01-.034l-.01-.03a1.34 1.34 0 0 0-.095-.223.788.788 0 0 0-.293-.312.86.86 0 0 0-.095-.042c-.018-.008-.035-.012-.052-.02-.022-.004-.025-.007-.047-.01-.042-.01-.081-.014-.118-.019l-.03-.003-.034-.002-.064-.003-.624-.017z"/></g><g><path fill="#32125b" d="M74.8 45.541l-.008-.872-.006-.435v-.216l-.002-.064a.723.723 0 0 0-.076-.29.697.697 0 0 0-.11-.167l-.074-.081-.146-.163-.29-.324-.585-.646c-.778-.86-1.562-1.718-2.364-2.559l-.6-.634-.299-.315-.307-.312-1.232-1.238-.54.46 1.275 1.74 1.307 1.707.662.848.67.84 1.18 1.453c-.01 1.114-.024 2.227-.026 3.343l-.003.902.007.907v.219c0 .029-.002.063-.004.098l-.013.098c-.01.13-.041.253-.088.364a.748.748 0 0 1-.19.268.748.748 0 0 1-.304.16c-.027.007-.057.02-.086.024-.03.005-.06.01-.082.012l-.209.005-.452.013-.904.027c-.602.017-1.204.031-1.807.058-.602.025-1.204.047-1.806.076l-.904.048-.448.024a2.553 2.553 0 0 1-.43-.013l-.108-.02a1.003 1.003 0 0 1-.305-.113.699.699 0 0 1-.275-.31 1.346 1.346 0 0 1-.115-.438c-.02-.156-.028-.318-.045-.49-.044-.543-.088-1.083-.14-1.627l-.083-.823c-.03-.285-.071-.558-.091-.823-.022.265-.064.538-.093.823l-.084.823c-.052.55-.098 1.101-.14 1.652v.01c-.01.137-.025.277-.03.43-.01.147-.005.3.015.45.02.152.062.304.12.446.062.148.148.284.252.401.208.244.493.406.786.502.144.047.294.083.445.106.076.01.147.02.226.024l.115.01.108.005c1.157.069 2.318.108 3.478.155l1.74.054.87.02.219.004a2.076 2.076 0 0 0 .481-.032c.084-.015.16-.032.241-.056a2.279 2.279 0 0 0 1.46-1.236c.07-.15.123-.303.165-.46.044-.158.056-.317.079-.474.021-.155.019-.32.024-.462l.002-.436c.006-.577-.005-1.16-.01-1.74z"/></g><g><path fill="#32125b" d="M50.237 37.709a1.814 1.814 0 0 0-.422-.533 1.962 1.962 0 0 0-.58-.342 2.55 2.55 0 0 0-.632-.157c-.052-.007-.103-.015-.16-.017l-.152-.012-.31-.005-.592-.008-2.375-.032c-.79-.005-1.582-.015-2.376-.012h-.89c-.051.002-.093 0-.162.002-.059.005-.12.01-.174.018a2.426 2.426 0 0 0-1.236.543 2.315 2.315 0 0 0-.723 1.146c-.017.055-.03.1-.042.154-.012.054-.025.108-.032.162-.017.11-.035.221-.04.332-.012.116-.012.211-.012.327l.005.297.05 2.375.054 2.374.029 1.187.044 1.187c.064 1.582.138 3.168.256 4.75h.712c.131-1.902.217-3.804.286-5.706.031-.951.044-1.903.064-2.854l.056-2.853.015-.713c.002-.23.014-.4.081-.6a.696.696 0 0 1 .3-.395.789.789 0 0 1 .364-.126c.017-.002.095 0 .15-.002l2.853-.012 2.85-.037.713-.01.032-.002.045.002.078.003a2.493 2.493 0 0 1 .231.029l.077.017c.047.015.09.03.127.047a.42.42 0 0 1 .182.142c.04.06.072.15.091.249.02.093.027.204.03.317l.005.174c0 .059.002.12.007.19l.047 1.474.054 1.521.142 3.043.185 3.04c.04.518.085 1.037.132 1.543.025.251.047.501.067.75.015.246.031.494.05.742l.048-.715c.012-.147.022-.295.036-.445l.109-1.19.049-.604c.015-.202.025-.395.04-.595l.071-1.184.07-1.185c.023-.395.04-.791.058-1.187.036-.789.078-1.58.107-2.372l.042-1.187.037-1.19.01-.299c.003-.022-.002-.054 0-.074v-.066l.005-.15a3.262 3.262 0 0 0-.032-.634 2.08 2.08 0 0 0-.204-.632z"/></g><g><path fill="#32125b" d="M98.964 38.34a2.101 2.101 0 0 0-.204-.631 1.83 1.83 0 0 0-1.003-.875 2.51 2.51 0 0 0-.632-.157c-.051-.007-.104-.015-.16-.017l-.152-.012-.31-.005-.592-.008-2.374-.032c-.791-.005-1.582-.015-2.374-.012h-.892c-.05.002-.094 0-.163.002-.058.005-.12.01-.174.018-.224.03-.445.09-.651.181-.21.09-.41.212-.586.362a2.325 2.325 0 0 0-.722 1.146c-.017.055-.03.1-.041.154-.01.054-.025.108-.033.162-.017.11-.034.221-.038.332-.013.116-.013.211-.013.327l.005.297.05 2.375.054 2.374.03 1.187.043 1.187c.064 1.582.137 3.168.255 4.75H89c.13-1.902.219-3.804.285-5.706.032-.951.045-1.903.063-2.854l.057-2.853.015-.713c.002-.23.017-.4.084-.6a.701.701 0 0 1 .297-.395.771.771 0 0 1 .366-.126c.015-.002.094 0 .148-.002l2.853-.012 2.851-.037.713-.01.032-.002.044.002c.027 0 .06.003.08.003.055.004.112.01.16.016.026.003.047.008.07.013l.076.017c.05.015.09.03.128.047.086.04.137.081.181.142.04.06.075.15.092.249.02.093.029.204.029.317l.005.174c0 .059.002.12.007.19l.047 1.474.054 1.521.143 3.043.184 3.04c.04.518.086 1.037.135 1.543.022.251.045.501.065.75.014.246.03.494.049.742l.05-.715c.01-.147.022-.295.035-.445l.109-1.19.05-.604c.016-.202.026-.395.038-.595l.073-1.184.072-1.185c.022-.395.036-.791.056-1.187.035-.789.076-1.58.106-2.372l.042-1.187.036-1.19.01-.299c.003-.022-.003-.054 0-.074l.003-.066.002-.15c.01-.204.005-.418-.031-.634z"/></g><g><path fill="#32125b" d="M40.33 32.041c.286.33.283.809.013 1.133l-.012.013-3.724 4.463c-1.24 1.49-2.492 2.969-3.738 4.45l-1.87 2.225-1.878 2.22-3.757 4.43-.003.003a.988.988 0 0 1-1.519-.02l-3.573-4.439-3.564-4.446-3.549-4.458-3.54-4.465-.012-.018a.837.837 0 0 1-.009-1.022l3.598-4.738 3.613-4.727c1.211-1.57 2.416-3.145 3.632-4.71l3.652-4.7.012-.015a.396.396 0 0 1 .627.003l1.812 2.386 1.801 2.396c.602.8 1.204 1.595 1.8 2.399.594.801 1.194 1.602 1.783 2.408-.66-.75-1.314-1.506-1.97-2.258-.657-.755-1.306-1.514-1.957-2.27l-1.954-2.274-1.597-1.873-3.124 4.45c-1.14 1.623-2.29 3.24-3.436 4.857l-3.455 4.844-3.083 4.291 3.218 3.896 3.615 4.404 3.605 4.414 2.842 3.5 2.993-3.522 1.885-2.215 1.89-2.206c1.26-1.47 2.52-2.945 3.788-4.41l3.312-3.836-1.885-2.264-2.138-2.58-2.782-.04-3.163-.053-1.197-.025-.015.403c-.027.703-.054 1.406-.086 2.109-.032-.703-.059-1.406-.086-2.109l-.014-.406-4.926-.098h-.024a.557.557 0 0 1-.546-.567v-.003l.062-2.627.064-2.627.002-.023a.432.432 0 0 1 .442-.422l2.514.066 2.512.074h.02c.162.004.29.14.285.305l-.14 4.22-.012.36 1.145-.022 3.163-.054 3.16-.046a.764.764 0 0 1 .588.263l.017.017 2.44 2.792 2.434 2.794zM27.08 26.305l-.012-.369-.128-3.907-2.22.066-2.057.054.054 2.195.047 2.045z"/></g><g><path fill="#ff613b" d="M0 33.331c1.84-2.614 3.598-5.124 5.368-7.623 1.656-2.337 3.305-4.682 4.991-6.98.7-.954.418-2.104.465-3.153.115-2.65.118-5.307.123-7.96 0-.674.162-.88.673-.866 1.256.034 2.512.034 3.768 0 .513-.015.705.204.678.872-.034.94-.007 1.88.16 2.967.334-.418.678-.826 1.005-1.256 2.254-2.961 4.51-5.918 6.744-8.902.383-.508.62-.612 1.064-.061 2.922 3.62 5.874 7.198 8.816 10.79 4.333 5.288 8.668 10.577 12.999 15.869.1.122.172.285.341.567-.31.044-.511.094-.713.096-2.462.017-4.925.052-7.387.015-.374-.005-.829-.231-1.101-.556-3.139-3.74-6.25-7.518-9.37-11.285-1.398-1.686-2.796-3.367-4.293-5.169L7.956 32.847l18.071 22.27L21.81 60 0 33.331z"/></g></g></g></svg>