<svg xmlns="http://www.w3.org/2000/svg" width="18" height="18" viewBox="0 0 18 18"><g><g><path fill="#fff" d="M15.611 16.579c0 .785-.634 1.421-1.417 1.421a1.419 1.419 0 0 1-1.416-1.421c0-.785.634-1.421 1.416-1.421.783 0 1.417.636 1.417 1.42zM5.531 3.789l1.107 3.892.241.845h6.363a.95.95 0 0 0 .908-.687l1.154-4.05zm11.025 8.527c.521 0 .944.424.944.947a.946.946 0 0 1-.944.948H5.222a2.837 2.837 0 0 1-2.829-2.69 2.84 2.84 0 0 1 2.526-2.979l-1.55-5.44v-.004l-.146-.516a.95.95 0 0 0-.908-.687h-.87A.946.946 0 0 1 .5.947C.5.424.923 0 1.444 0h.87a2.84 2.84 0 0 1 2.662 1.895h11.58a.95.95 0 0 1 .908 1.208L15.966 8.36a2.847 2.847 0 0 1-2.724 2.061h-8.02a.946.946 0 0 0-.944.947c0 .524.423.948.944.948h11.334zm-8.5 4.263c0 .785-.635 1.421-1.417 1.421a1.419 1.419 0 0 1-1.417-1.421c0-.785.634-1.421 1.417-1.421.782 0 1.417.636 1.417 1.42z"/></g></g></svg>