<svg xmlns="http://www.w3.org/2000/svg" width="18" height="16" viewBox="0 0 18 16"><g><g><path fill="#d0d0d0" d="M18 2.297c-.676.3-1.392.5-2.124.59A3.79 3.79 0 0 0 17.505.796a7.286 7.286 0 0 1-2.349.92 3.629 3.629 0 0 0-4.452-.77c-1.482.81-2.242 2.544-1.848 4.216-2.968-.153-5.732-1.59-7.605-3.952a3.903 3.903 0 0 0-.495 1.907A3.793 3.793 0 0 0 2.394 6.26a3.58 3.58 0 0 1-1.674-.47v.046C.73 7.63 1.97 9.17 3.69 9.52c-.321.1-.654.153-.99.157a4.31 4.31 0 0 1-.693-.065c.487 1.535 1.87 2.586 3.447 2.617A7.29 7.29 0 0 1 .9 13.85c-.3.001-.601-.017-.9-.055A10.239 10.239 0 0 0 5.661 15.5c2.8.03 5.493-1.093 7.475-3.117A10.809 10.809 0 0 0 16.2 4.74V4.25A7.695 7.695 0 0 0 18 2.297z"/></g></g></svg>