<svg xmlns="http://www.w3.org/2000/svg" width="18" height="18" viewBox="0 0 18 18"><g><g><path fill="#fff" d="M8.987 9C6.989 9 5.369 7.389 5.369 5.402c0-1.987 1.62-3.598 3.618-3.598 1.998 0 3.617 1.61 3.617 3.598C12.604 7.389 10.984 9 8.987 9zm3.355.638a5.379 5.379 0 0 0 1.773-6.007A5.425 5.425 0 0 0 8.987 0a5.425 5.425 0 0 0-5.128 3.631A5.379 5.379 0 0 0 5.63 9.638a9.002 9.002 0 0 0-5.625 7.358.906.906 0 0 0 .804.999.909.909 0 0 0 1.004-.801c.412-3.64 3.507-6.393 7.19-6.393 3.684 0 6.78 2.753 7.191 6.393.05.458.441.803.904.8h.1a.9.9 0 0 0 .796-.989 9.002 9.002 0 0 0-5.653-7.367z"/></g></g></svg>